<?xml version="1.0" encoding="UTF-8" standalone="no"?>
<svg
   xmlns:dc="http://purl.org/dc/elements/1.1/"
   xmlns:cc="http://creativecommons.org/ns#"
   xmlns:rdf="http://www.w3.org/1999/02/22-rdf-syntax-ns#"
   xmlns:svg="http://www.w3.org/2000/svg"
   xmlns="http://www.w3.org/2000/svg"
   width="10mm"
   height="10mm"
   viewBox="0 0 10 10"
   version="1.1"
   id="svg1546">
  <style
     id="style2">
    path {
      fill: black !important;
    }
    @media (prefers-color-scheme: dark) {
      path {
        fill: white !important;
      }
    }
  </style>
  <defs
     id="defs1540">
    <clipPath
       clipPathUnits="userSpaceOnUse"
       id="clipPath2157">
      <rect
         style="fill:none;stroke:#000000;stroke-width:0.225423"
         id="rect2159"
         width="9.7745762"
         height="9.7745771"
         x="0.11271187"
         y="0.11271187" />
    </clipPath>
  </defs>
  <metadata
     id="metadata1543">
    <rdf:RDF>
      <cc:Work
         rdf:about="">
        <dc:format>image/svg+xml</dc:format>
        <dc:type
           rdf:resource="http://purl.org/dc/dcmitype/StillImage" />
        <dc:title></dc:title>
      </cc:Work>
    </rdf:RDF>
  </metadata>
  <g
     id="layer1">
    <g
       id="g2155"
       clip-path="url(#clipPath2157)">
      <g
         id="g909"
         style="display:inline;fill:#000000;stroke:none;stroke-width:0.943299;stroke-miterlimit:4;stroke-dasharray:none"
         transform="matrix(0.09264359,0,0,0.09264359,34.776397,-7.7819549)">
        <path
           id="path872"
           d="m -371.26711,116.15681 0.0236,2.17336 c 1.99426,0.14575 4.10839,0.0979 5.55151,1.13393 0.84,0.43131 1.35354,1.64382 1.32816,2.56112 l 0.0184,27.51161 c -0.21716,4.0072 -0.5076,7.65629 -1.70087,10.77232 -1.19327,3.11603 -2.4138,6.27178 -5.14993,9.4494 -2.73613,3.17762 -4.20521,3.7612 -6.49647,5.10268 -2.29126,1.34148 -4.01352,2.24156 -8.88244,2.64584 -4.86892,0.40428 -9.43837,-1.01628 -12.66221,-2.38598 -3.22384,-1.3697 -5.04654,-3.01922 -6.87443,-5.14992 -1.82789,-2.1307 -3.72083,-4.94835 -4.48847,-7.34692 -0.76764,-2.39857 -1.16981,-3.24648 -1.18118,-5.55152 -0.0114,-2.30504 0.37617,-5.3925 1.08669,-7.25242 0.71052,-1.85992 0.68522,-2.15899 2.36233,-4.39397 1.67711,-2.23498 4.19243,-4.29273 6.11849,-5.5279 1.92606,-1.23517 3.88569,-1.80339 6.30749,-2.05525 2.4218,-0.25186 4.9253,0.31409 6.70909,1.01581 1.78379,0.70172 3.20392,1.62704 4.60658,2.95294 1.40266,1.3259 2.38417,2.20406 3.47266,4.79557 1.08849,2.59151 1.26884,4.39038 1.11029,6.44922 -0.15855,2.05884 -0.9399,3.78229 -1.88989,5.17355 -0.94999,1.39126 -2.58314,2.90682 -4.08686,3.82701 -1.50372,0.92019 -3.0873,1.30572 -4.72469,1.34654 -1.63739,0.0408 -2.84291,-0.25121 -4.29948,-0.92132 -1.45657,-0.67011 -2.7475,-1.90085 -3.30729,-2.7167 -0.55979,-0.81585 -0.84245,-0.93927 -1.09766,-1.70257 -0.25521,-0.7633 -0.0805,-1.67194 -0.0363,-2.00632 0.0442,-0.33439 0.90192,-2.10609 0.90292,-2.48047 0.001,-0.37438 0.17524,-1.50305 -0.14697,-1.79539 -0.32221,-0.29234 -0.39437,-0.64735 -1.06307,-0.63783 -0.6687,0.01 -1.11013,0.354 -1.37015,0.82682 -0.26002,0.47282 -0.57915,0.78502 -0.61423,1.79539 -0.0351,1.01037 0.10828,1.48752 0.40161,2.4096 0.29333,0.92208 0.98274,1.94885 1.58277,2.97656 0.60003,1.02771 1.71322,1.96148 2.50409,2.66945 0.79087,0.70797 1.55114,1.01483 2.55135,1.44104 1.00021,0.42621 1.75881,0.49282 3.13787,0.58891 1.37906,0.0961 3.13121,0.006 4.39802,-0.51804 1.26681,-0.52406 2.46319,-1.1648 3.70436,-2.35138 1.24117,-1.18658 2.56785,-2.94612 3.36027,-4.66075 0.79242,-1.71463 0.99918,-3.25342 1.03656,-5.22771 0.0374,-1.97429 -0.31276,-3.53814 -0.98527,-5.101 -0.67251,-1.56286 -1.8588,-3.65331 -3.23354,-4.81228 -1.37474,-1.15897 -2.5016,-2.46822 -4.4021,-3.24215 -1.9005,-0.77393 -3.87115,-1.50873 -6.44922,-1.7009 -2.57807,-0.19217 -5.06484,0.29315 -7.01617,1.06306 -1.95133,0.76991 -3.51905,1.78426 -5.00937,3.11425 -1.49032,1.32999 -2.56794,2.33685 -3.51873,3.87831 -0.95079,1.54146 -2.0733,3.38952 -2.64583,5.1263 -0.57253,1.73678 -1.03521,3.21553 -1.08667,5.2208 -0.0515,2.00527 0.0723,4.78831 0.50184,6.70215 0.42957,1.91384 0.92399,2.77065 1.71878,4.37728 0.79479,1.60663 2.16282,3.63581 3.56714,5.14992 1.40432,1.51411 2.79834,2.82585 4.44003,3.90885 1.64169,1.083 3.09917,1.85227 4.96212,2.63486 1.86295,0.78259 4.13677,1.45935 6.40197,1.79539 2.52772,0.22456 5.38333,0.14048 7.7168,-0.29787 2.33347,-0.43835 3.33294,-0.7444 6.21583,-1.77413 2.88289,-1.02973 4.83937,-2.21446 7.06867,-3.21972 2.2293,-1.00526 3.91948,-2.32602 5.66965,-3.80338 l 2.74034,-2.31511 4.98454,0.0236 0.0472,-16.46559 c 0.8041,-1.55128 0.97736,-2.37507 2.88208,-4.65383 1.90472,-2.27876 4.37025,-4.0354 5.95313,-5.24442 1.58288,-1.20902 2.68463,-1.43069 4.48847,-2.05525 1.80384,-0.62456 4.04007,-0.35297 6.02398,-0.33072 -1.21358,-0.17231 -2.00863,-0.62261 -3.82701,-0.75596 -1.81838,-0.13335 -3.90998,0.01 -6.30748,0.37798 -2.3975,0.36847 -4.93628,1.36294 -6.37834,1.98437 -1.44206,0.62143 -1.53822,0.94494 -1.98438,1.41741 0,0 -0.15981,-8.00262 -0.0235,-9.4494 0.13631,-1.44678 0.29163,-5.87166 0.92133,-8.6462 0.42579,-2.64458 0.81954,-4.26408 1.74813,-6.89807 0.92859,-2.63399 2.33513,-6.26479 4.08686,-9.02418 1.75173,-2.75939 3.79271,-5.34519 5.95312,-7.5359 2.16041,-2.190713 3.35978,-3.18 6.61458,-4.890068 3.2548,-1.710068 5.5016,-2.007724 8.26823,-2.834823 2.76663,-0.827099 6.05676,-0.754708 8.83521,-0.425222 2.77845,0.329486 5.14939,1.012573 7.39415,1.984375 2.24476,0.971802 4.70598,2.060123 6.63821,3.567149 1.93223,1.507026 3.47225,2.947279 5.1263,4.890069 1.65405,1.94279 2.61465,4.36353 3.6144,6.42559 0.99975,2.06206 1.01293,3.534 1.44102,5.88226 0.42809,2.34826 0.0645,5.14381 -0.42521,7.60677 -0.48966,2.46296 -1.2547,4.42172 -2.55135,6.68545 -1.29665,2.26373 -3.13665,4.15383 -4.58295,5.71689 -1.4463,1.56306 -3.3598,2.8242 -5.59877,3.92151 -2.23897,1.09731 -5.27956,1.51222 -7.72488,1.46465 -2.44532,-0.0476 -4.18592,-0.14721 -6.35474,-1.08668 -2.16882,-0.93947 -3.43276,-1.35058 -6.11207,-3.70029 -2.67931,-2.34971 -3.02182,-2.83437 -3.97517,-4.49707 -0.95335,-1.6627 -1.60842,-3.49307 -1.93712,-5.5279 -0.3287,-2.03483 -0.3351,-3.50819 -0.10595,-4.98742 0.22914,-1.47923 0.41735,-2.68994 1.3938,-4.60659 0.97644,-1.91666 1.79305,-2.71055 3.20064,-4.084 1.40759,-1.37345 3.01104,-2.50717 4.58296,-3.16555 1.57192,-0.65838 3.12825,-0.97388 4.8192,-0.92132 1.69095,0.0526 2.94622,0.24249 4.37033,0.82683 1.42411,0.58434 2.8762,1.34638 3.75616,2.12611 0.87996,0.77973 1.74272,1.26241 2.45684,2.43322 0.71412,1.17081 1.2437,2.47579 1.51191,3.37817 0.26821,0.90238 0.42559,1.69168 0.44884,2.69307 0.0232,1.00139 -0.0368,1.99467 -0.44884,3.3073 -0.41201,1.31263 -1.07825,2.36838 -1.37017,2.78757 -0.29192,0.41919 -1.21236,1.86966 -1.51191,1.9135 -0.29955,0.0438 -1.61822,0.30711 -1.61822,0.30711 -0.18965,0.025 -1.70662,0.47748 -1.90168,0.60241 0,0 -0.79462,0.71777 -0.3302,1.35096 0.27541,0.39694 1.37825,0.35571 1.91302,-0.0163 0.53477,-0.37198 1.56206,-1.19819 2.14688,-1.9221 0.58481,-0.72391 1.48676,-1.53008 2.10534,-2.54274 0.61858,-1.01266 0.90434,-2.07996 1.26709,-3.55332 0.36275,-1.47336 0.23676,-3.06557 -0.0403,-4.56625 -0.27707,-1.50069 -1.13445,-3.35743 -2.17051,-4.72876 -1.03606,-1.37132 -1.82222,-2.08964 -3.15289,-2.98467 -1.33067,-0.89504 -2.96748,-1.6368 -4.69131,-2.00276 -1.72383,-0.36596 -3.28996,-0.42458 -5.00816,-0.28348 -1.7182,0.1411 -2.87082,0.72754 -4.13412,1.25205 -1.2633,0.52451 -2.74408,1.4912 -4.32311,2.92931 -1.57903,1.43811 -2.14451,2.51393 -2.9057,3.96875 -0.76119,1.45482 -1.32794,3.22476 -1.63002,5.07906 -0.30208,1.8543 -0.33573,3.91627 -0.0236,5.5279 0.31213,1.61163 0.27283,2.32261 0.85045,3.66164 0.57762,1.33903 1.4878,2.98726 2.38599,4.18137 0.89819,1.19411 1.49662,1.84106 3.00019,3.0238 1.50357,1.18274 3.64981,2.57073 5.45703,3.54353 1.80722,0.9728 3.39643,1.05034 5.19716,1.32292 1.80073,0.27258 3.63764,0.26246 5.31529,0.0473 1.67765,-0.21516 3.15599,-0.58543 4.5121,-1.13393 1.35611,-0.5485 2.76375,-1.17473 4.60658,-2.29148 1.84283,-1.11675 3.31397,-2.46822 4.74832,-4.25224 1.43435,-1.78402 3.14102,-4.01942 4.06326,-6.59096 1.08287,-1.93289 1.54205,-3.11056 1.86623,-6.44921 0.32418,-3.33865 0.33225,-4.45376 0.0236,-6.28386 -0.30865,-1.8301 -1.10045,-5.17483 -2.14975,-7.46503 -1.0493,-2.29021 -2.23691,-4.33405 -3.87423,-6.21298 -1.63732,-1.878929 -3.30754,-3.329424 -5.33893,-4.819199 -2.03139,-1.489776 -3.86151,-2.601442 -6.26022,-3.543525 -2.39871,-0.942083 -5.11257,-1.843155 -8.66984,-2.196989 -3.55727,-0.353834 -6.08671,-0.09846 -9.1423,0.354354 -3.05559,0.452816 -6.6068,1.636907 -9.78012,3.590774 -3.17331,1.953866 -6.14864,4.393675 -7.89026,6.543715 -1.74162,2.15004 -2.85458,3.46987 -4.08686,5.38616 -1.23228,1.91629 -2.54337,4.3403 -3.14194,6.04761 -0.59856,1.70732 -1.26601,2.93127 -1.70089,4.48847 z"
           style="fill:#000000;stroke:none;stroke-width:0.943299;stroke-linecap:butt;stroke-linejoin:miter;stroke-miterlimit:4;stroke-dasharray:none;stroke-opacity:1" />
        <path
           id="path875"
           d="m -339.23364,167.67969 21.02493,0.0945 -0.0472,-2.26786 c -1.95138,-0.28158 -4.39937,0.0778 -5.65803,-1.10215 -1.53433,-1.43833 -1.18005,-2.44242 -1.40316,-3.52462 l -0.0835,-37.35092 c 0.0949,-1.04054 0.24264,-2.15959 0.45101,-2.62258 0.64834,-1.44058 1.0088,-1.53083 1.73725,-1.83748 1.74971,-0.73657 4.89437,-0.66817 4.89437,-0.66817 v -2.17157 l -20.81361,-0.0334 0.0668,2.20497 c 0,0 1.83233,-0.0473 2.72283,0.13363 1.02888,0.20909 2.09181,0.49052 2.95666,1.08579 1.15399,0.79429 1.29855,3.04738 1.21941,3.04019 l 0.10022,38.23624 c 0,0 -0.24892,2.03265 -0.90203,2.80633 -0.7133,0.84499 -1.75381,1.10443 -2.82304,1.38646 -1.10436,0.2913 -3.4578,0.30068 -3.4578,0.30068 z"
           style="display:inline;fill:#000000;stroke:none;stroke-width:0.943299;stroke-linecap:butt;stroke-linejoin:miter;stroke-miterlimit:4;stroke-dasharray:none;stroke-opacity:1" />
        <ellipse
           ry="1.2361215"
           rx="1.252826"
           cy="150.47275"
           cx="-398.94986"
           id="path879"
           style="fill:#000000;fill-opacity:1;stroke:none;stroke-width:0.943299;stroke-miterlimit:4;stroke-dasharray:none" />
        <ellipse
           style="display:inline;fill:#000000;fill-opacity:1;stroke:none;stroke-width:0.943299;stroke-miterlimit:4;stroke-dasharray:none"
           id="path879-7"
           cx="-397.59683"
           cy="147.83345"
           rx="0.86939394"
           ry="0.85780203" />
        <circle
           r="0.78510422"
           cy="139.36436"
           cx="-335.97449"
           id="path896"
           style="fill:#000000;fill-opacity:1;stroke:none;stroke-width:0.943299;stroke-miterlimit:4;stroke-dasharray:none" />
        <circle
           r="0.60135639"
           cy="139.99911"
           cx="-334.17041"
           id="path898"
           style="fill:#000000;fill-opacity:1;stroke:none;stroke-width:0.943299;stroke-miterlimit:4;stroke-dasharray:none" />
        <circle
           r="0.45101732"
           cy="140.85104"
           cx="-332.67538"
           id="path900"
           style="fill:#000000;fill-opacity:1;stroke:none;stroke-width:0.943299;stroke-miterlimit:4;stroke-dasharray:none" />
      </g>
      <path
         id="path911"
         d="M 7.8008194,8.1165617 C 7.4718569,8.1967235 7.1056146,8.1723734 6.7701483,8.097982 6.4317387,8.022946 6.0941726,7.8875267 5.8199553,7.6755003 5.5553964,7.4709453 5.3357546,7.194122 5.1947418,6.890891 5.0740634,6.631379 5.0206605,6.3351744 5.0260591,6.0490249 5.0322662,5.7196492 5.1061065,5.381024 5.2566453,5.0879969 5.3985245,4.8118275 5.606291,4.5534237 5.8663783,4.3838595 6.1977664,4.1678156 6.6273839,4.0656783 7.0672801,4.1795849 7.3733931,4.2588453 7.658698,4.4631352 7.8549826,4.7119412 8.1086196,5.0334478 8.1947958,5.4640828 8.1087785,5.8509395 8.0564768,6.0861644 7.9014056,6.3180514 7.7265335,6.4978155 7.5608319,6.6681546 7.316627,6.7385816 7.080907,6.7451006 6.901605,6.7500912 6.6949621,6.6704181 6.5630401,6.5345454 6.4710111,6.4397549 6.4051166,6.317178 6.36469,6.1913999 6.3242556,6.0655833 6.3609055,5.9272829 6.3261209,5.7968141 6.3050106,5.7178105 6.2296398,5.6228425 6.1480332,5.6280897 c -0.079029,0.00507 -0.1326748,0.1069078 -0.1501113,0.1841596 -0.027238,0.1207011 0.029508,0.2516435 0.088211,0.3605793 0.056088,0.1041157 0.1528276,0.1816397 0.2414175,0.2599883 0.096307,0.085173 0.1980626,0.1675443 0.3126049,0.2259408 0.1267238,0.064608 0.2633975,0.1257625 0.4054582,0.1330914 C 7.2396206,6.8018291 7.4436152,6.7593161 7.615112,6.6680454 7.7954772,6.5720696 7.9397663,6.4108488 8.0577095,6.2440156 8.1315488,6.1395744 8.1942961,6.0203943 8.2155612,5.8942716 8.2748092,5.5428857 8.2584358,5.1577467 8.1196134,4.8295553 8.0247054,4.6051885 7.839396,4.4196291 7.6429677,4.275533 7.4573864,4.1393929 7.2352516,4.0424762 7.0084711,4.0031619 6.7467155,3.9577868 6.4657567,3.9708154 6.2130314,4.0526834 5.9470083,4.1388745 5.7057762,4.3076029 5.504252,4.5014738 5.3273069,4.6717038 5.1876522,4.8844186 5.0864153,5.1081158 4.9749906,5.3543152 4.9062055,5.6246207 4.8883264,5.8942718 c -0.017932,0.2704491 0.012673,0.5489068 0.092854,0.807818 0.078379,0.2530471 0.2100399,0.4925084 0.3714136,0.7025905 0.1738884,0.2263754 0.3959891,0.4160095 0.6283044,0.5818768 0.2829563,0.2020275 0.6155286,0.3146293 0.9409129,0.411648 0.371183,0.1106794 1.0600017,0.076845 1.0863779,0.074287 C 8.0008483,8.5097558 7.1913068,8.8127143 6.75777,8.8717616 6.3577708,8.9262425 5.9428319,8.9074757 5.5475843,8.8253385 5.1746724,8.7478384 4.8181643,8.5912827 4.4828681,8.4105964 4.2144882,8.2659672 3.9651376,8.0835134 3.7369497,7.8813352 3.5532781,7.7185953 3.3896648,7.5323933 3.2417325,7.3365968 3.0732958,7.1136556 2.9166056,6.8782461 2.7991352,6.6247227 2.7722368,6.5666964 2.7455692,6.5058452 2.7403301,6.4421098 c -0.00863,-0.1049891 0.048058,-0.2072707 0.046423,-0.3126039 -0.00113,-0.063942 0.00152,-0.1356263 -0.034049,-0.1888024 -0.019067,-0.028561 -0.052329,-0.056497 -0.08666,-0.05571 -0.039209,0.00113 -0.078429,0.032989 -0.095948,0.068093 -0.03367,0.067404 -0.00912,0.1521691 0.00621,0.2259398 0.03768,0.181777 0.1220366,0.3520184 0.2073692,0.5168834 0.11971,0.2312715 0.2673547,0.4481512 0.4240298,0.6561632 0.1614531,0.2143533 0.3307903,0.4260199 0.5292616,0.6066387 0.2640633,0.2403086 0.5527777,0.4608242 0.8697255,0.6252099 0.3411903,0.17696 0.7121462,0.3044672 1.0894731,0.3776026 0.359913,0.069765 0.7365022,0.097068 1.1141241,0.045113 C 7.2001176,8.9530089 7.574436,8.8356659 7.9153502,8.6798682 8.3057667,8.5014516 8.6634212,8.25753 9.0233986,8.0237081 9.2841593,7.8543297 9.5295944,7.6407978 9.7774962,7.5010793 10.071685,7.335267 10.400504,7.2198018 10.733912,7.1644018 c 0.29246,-0.048596 0.595562,-0.031472 0.889372,0.00811 0.195675,0.026367 0.387655,0.082491 0.572593,0.1516628 0.190584,0.071272 0.374187,0.1632004 0.547834,0.2692729 0.145976,0.089166 0.283289,0.1933448 0.411647,0.3064155 0.142541,0.1255619 0.31284,0.2393927 0.395229,0.4105573 0.03371,0.070056 0.02417,0.1650584 0.03041,0.23126 0.0047,0.049615 0.02255,0.1023077 0.05717,0.1381455 0.02599,0.026897 0.06631,0.057163 0.102141,0.046423 0.03151,-0.00946 0.05032,-0.050728 0.05262,-0.083562 0.0062,-0.090289 -0.06162,-0.1720349 -0.111425,-0.2476064 C 13.576397,8.235591 13.434953,8.1018342 13.294065,7.9728361 13.128325,7.821087 12.948085,7.6816096 12.759166,7.5625169 12.516747,7.4096927 12.263787,7.2865628 11.973011,7.2034856 11.585258,7.092696 11.329211,7.0770899 11.038287,7.0642048 10.492652,7.0400304 9.5326681,7.4287559 9.524784,7.4263312 9.4822504,7.3926238 9.7170736,6.992605 9.7290623,6.7608844 9.7469965,6.4143443 9.7133266,6.032796 9.5278807,5.7394998 9.3398623,5.4421372 9.007638,5.2389106 8.6798212,5.1111955 8.2891777,4.9590035 8.0997481,4.9120055 7.7449839,4.7733608 7.5466754,4.6958632 7.2030836,4.5202346 7.0524881,4.2682016 6.938203,4.0769449 6.9162117,3.8507357 6.9407529,3.6392088 6.964738,3.4323087 7.0548298,3.2254994 7.1879851,3.0653325 7.3486627,2.8720593 7.6357154,2.7496595 7.9091421,2.7341562 8.1798789,2.7187962 8.459052,2.8271692 8.6860142,2.9755737 8.8996483,3.11527 9.0488744,3.3399773 9.1874205,3.5543605 c 0.099966,0.1546851 0.2321299,0.5014064 0.2321299,0.5014064 0.03541,-0.00466 0.067344,0 0.067344,0 -0.00545,-0.00227 -0.012106,-0.5693895 0.041736,-0.8405879 0.046019,-0.2317251 0.0356,-0.488381 0.1272762,-0.6965522 C 9.7212684,2.3701914 9.7844808,2.1586079 9.7352505,1.9634771 9.6786389,1.7390763 9.5623375,1.5067724 9.3762183,1.3692173 9.2220893,1.2553031 9.009053,1.2088083 8.8185074,1.2294075 8.674086,1.2450323 8.5280717,1.3177779 8.4282119,1.4232709 8.3282041,1.5289227 8.2756,1.6800782 8.2557952,1.824197 c -0.01116,0.081216 -0.00446,0.1706537 0.032611,0.2437629 0.01971,0.038853 0.052438,0.078402 0.094291,0.090508 0.044509,0.012862 0.1041462,0.00564 0.1361818,-0.027844 0.031779,-0.033216 0.033897,-0.091878 0.021677,-0.1361823 C 8.5118802,1.8905827 8.3518343,1.8526533 8.3331191,1.7465475 8.3168518,1.654273 8.3658815,1.5516248 8.4288859,1.4822722 8.5332704,1.3673668 8.6946441,1.2927595 8.8495374,1.2824088 9.0183563,1.2711352 9.200787,1.3316236 9.3329019,1.4373209 9.484012,1.5582151 9.6164522,1.7445953 9.6270942,1.9378193 9.6373843,2.1249412 9.5294399,2.3181197 9.397151,2.4508551 9.274248,2.5741704 9.0927178,2.6235404 8.9212544,2.666078 8.5907098,2.7480739 8.2988328,2.6185882 8.0028663,2.6234311 7.7961894,2.626831 7.5825023,2.63932 7.3891808,2.7125012 7.105498,2.8198744 6.8261848,2.9813767 6.6277855,3.2108129 6.4819605,3.3794541 6.3853164,3.5979797 6.3461306,3.817455 6.2970104,4.0925841 6.3169999,4.3911118 6.4142234,4.6531323 6.5008116,4.8864538 6.6621668,5.0978028 6.85373,5.2566759 7.0814222,5.4455153 7.3847168,5.5179662 7.6553583,5.6373736 7.9875938,5.7839515 8.3368384,5.82061 8.6643602,6.0490218 8.8732578,6.1947062 9.0344007,6.4341986 9.0770707,6.6826108 9.1197103,6.9308378 9.0469191,7.2127692 8.8995884,7.4170549 8.6435907,7.7720646 8.2546118,8.0059654 7.8008314,8.1165502 Z"
         style="display:inline;fill:#000000;stroke:none;stroke-width:0.0873906;stroke-linecap:butt;stroke-linejoin:miter;stroke-miterlimit:4;stroke-dasharray:none;stroke-opacity:1" />
    </g>
  </g>
</svg>
